<svg width="411" height="68" viewBox="0 0 411 68" fill="none" xmlns="http://www.w3.org/2000/svg">
	<g clip-path="url(#clip0_308_58)">
	<path d="M33.2883 33.2933H15.7806L10.756 45.9353C10.489 46.5635 10.3634 47.0818 10.3634 47.5058C10.3634 48.6051 11.965 49.3903 15.1525 49.8614C15.5137 49.9085 15.7649 50.0499 15.8905 50.2854C16.0161 50.521 16.0789 50.8037 16.0789 51.1178C16.0789 51.4319 16.0318 51.8559 15.9219 52.3741C14.5087 52.2642 13.017 52.1857 11.4468 52.1072C9.87664 52.0286 8.33784 51.9815 6.81475 51.9815C5.76271 51.9815 4.69498 52.0129 3.59584 52.06C2.4967 52.1072 1.35045 52.2171 0.141395 52.3741C0.031481 51.9501 -0.015625 51.5418 -0.015625 51.1178C-0.015625 50.7566 0.047183 50.4425 0.172799 50.1755C0.298415 49.9085 0.581051 49.7515 1.00501 49.7044C2.62231 49.4374 3.84707 49.1076 4.64787 48.7307C5.44867 48.3538 6.04535 47.7256 6.4065 46.8933L25.3588 1.33487C25.72 0.439723 26.2224 0 26.8505 0C27.0546 0 27.3687 0.0471132 27.7926 0.157044L46.7921 47.1132C47.1061 47.8513 47.8127 48.4166 48.9118 48.8406C50.011 49.2647 51.0787 49.5473 52.1307 49.7044C52.4448 49.8143 52.696 49.9557 52.8687 50.1441C53.0571 50.3326 53.1357 50.6624 53.1357 51.1178C53.1357 51.4319 53.0886 51.8559 52.9786 52.3741C51.2985 52.2642 49.6498 52.1857 48.0325 52.1072C46.4152 52.0286 44.8921 51.9815 43.4789 51.9815C42.0658 51.9815 40.3385 52.0286 38.4543 52.1072C36.57 52.1857 34.8742 52.2799 33.3511 52.3741C33.2412 51.8559 33.1941 51.4319 33.1941 51.1178C33.1941 50.6466 33.2883 50.3169 33.4611 50.1441C33.6338 49.9714 33.8065 49.8771 33.9792 49.8771C35.3453 49.6102 36.4444 49.3118 37.2766 48.9663C38.1088 48.6208 38.5328 48.1182 38.5328 47.4272C38.5328 47.1132 38.4229 46.7206 38.2188 46.2494L33.2726 33.2933H33.2883ZM32.0322 30.0739L24.7307 10.836L17.1153 30.0739H32.0322Z" fill="white"/>
	<path d="M91.5427 52.9238C87.1461 52.9238 83.2991 52.2485 80.0017 50.8822C76.7043 49.5159 73.9721 47.6471 71.8052 45.26C69.6384 42.873 68.0054 40.0776 66.9376 36.8582C65.8699 33.6388 65.3203 30.1681 65.3203 26.4619C65.3203 23.3681 65.8542 20.2587 66.9376 17.1178C68.0054 13.9769 69.6384 11.1344 71.8052 8.606C73.9721 6.06189 76.7043 4.00462 80.0017 2.40277C83.2991 0.800921 87.1461 0.0157013 91.5427 0.0157013C93.2699 0.0157013 94.8558 0.0471101 96.2847 0.125632C97.7293 0.204154 99.0953 0.329789 100.399 0.518242C101.702 0.706694 102.989 0.94226 104.246 1.22494C105.502 1.50762 106.805 1.83741 108.171 2.19861C108.218 3.61201 108.407 5.33949 108.721 7.38106C109.035 9.42263 109.459 11.4956 109.977 13.5843C109.553 13.7884 109.145 13.8984 108.721 13.8984C108.297 13.8984 107.92 13.8513 107.574 13.7413C107.229 13.6314 107.009 13.3487 106.915 12.8776C105.973 9.42263 104.481 6.95704 102.44 5.49653C100.399 4.03602 97.4466 3.29792 93.5682 3.29792C90.3179 3.29792 87.4601 3.81616 84.9792 4.86836C82.4983 5.92055 80.3942 7.38106 78.6984 9.26559C77.0026 11.1501 75.715 13.4115 74.8514 16.0656C73.9878 18.7039 73.5482 21.6563 73.5482 24.8915C73.5482 28.5035 74.0977 31.8328 75.1969 34.8637C76.296 37.8947 77.772 40.5173 79.6405 42.7159C81.4934 44.9146 83.676 46.6106 86.1569 47.8199C88.6378 49.0291 91.2914 49.6259 94.1178 49.6259C96.3632 49.6259 98.2631 49.406 99.8019 48.9663C101.341 48.5266 102.628 47.8827 103.649 47.0346C104.67 46.2023 105.533 45.1658 106.24 43.9409C106.946 42.7159 107.622 41.3182 108.234 39.7478C108.595 38.9626 109.223 38.57 110.118 38.57C110.385 38.57 110.652 38.6014 110.95 38.6956C111.233 38.7741 111.469 38.8684 111.61 38.9626C110.982 40.8 110.354 42.8102 109.726 45.0088C109.098 47.2074 108.579 49.406 108.155 51.6046C105.596 52.0286 102.974 52.3427 100.304 52.5783C97.635 52.8139 94.6988 52.9238 91.5113 52.9238H91.5427Z" fill="white"/>
	<path d="M159.375 52.3741C161.621 52.8453 163.709 53.7561 165.609 55.0753C167.525 56.4102 169.315 57.7607 170.979 59.127C172.659 60.4933 174.245 61.7025 175.737 62.7862C177.229 63.854 178.704 64.4037 180.18 64.4037C180.918 64.4037 181.594 64.2781 182.222 64.0425C182.85 63.8069 183.431 63.697 183.949 63.697C184.216 63.697 184.342 63.8226 184.342 64.0896C184.185 64.7178 183.792 65.2831 183.164 65.7857C182.536 66.2882 181.829 66.6965 181.044 67.042C180.259 67.3875 179.458 67.6388 178.642 67.7802C177.825 67.9372 177.166 68.0157 176.648 68.0157C174.81 68.0157 173.067 67.6859 171.419 67.042C169.77 66.3825 168.184 65.5501 166.661 64.5293C165.138 63.5086 163.662 62.3778 162.233 61.1529C160.789 59.928 159.422 58.7501 158.119 57.6194C156.816 56.4887 155.528 55.4836 154.272 54.6042C153.016 53.709 151.807 53.1122 150.661 52.7982C147.253 52.437 144.191 51.5418 141.475 50.1284C138.759 48.715 136.419 46.8619 134.488 44.6005C132.556 42.3233 131.065 39.6536 130.013 36.5912C128.961 33.5289 128.442 30.1681 128.442 26.509C128.442 22.8499 129.102 19.4892 130.405 16.3012C131.708 13.1132 133.498 10.3021 135.744 7.89931C137.989 5.49654 140.611 3.58061 143.595 2.16721C146.578 0.753817 149.719 0.0471191 153.016 0.0471191C157.57 0.0471191 161.542 0.769521 164.95 2.21432C168.357 3.65913 171.168 5.59077 173.397 8.02495C175.627 10.4591 177.276 13.2702 178.375 16.4739C179.474 19.6619 180.023 23.0226 180.023 26.5247C180.023 30.0268 179.521 33.0734 178.532 35.9945C177.543 38.8998 176.129 41.4439 174.324 43.6582C172.518 45.8568 170.351 47.6942 167.807 49.1547C165.264 50.6152 162.453 51.6203 159.36 52.1386V52.4527L159.375 52.3741ZM155.45 49.1547C157.915 49.1547 160.16 48.6836 162.202 47.7413C164.243 46.7991 166.002 45.4956 167.462 43.8153C168.922 42.1349 170.068 40.1561 170.885 37.8476C171.701 35.539 172.094 33.0263 172.094 30.3095C172.094 26.5404 171.701 23.054 170.916 19.8347C170.131 16.6152 168.938 13.8199 167.352 11.4328C165.75 9.04573 163.74 7.17691 161.307 5.81063C158.873 4.44435 156.031 3.76906 152.796 3.76906C150.645 3.76906 148.604 4.17737 146.641 4.994C144.678 5.81063 142.951 6.98846 141.459 8.52749C139.968 10.0665 138.774 11.9668 137.879 14.2125C136.984 16.4582 136.545 19.0494 136.545 21.9862C136.545 25.8651 136.969 29.4614 137.801 32.7908C138.633 36.1201 139.858 38.994 141.459 41.4282C143.061 43.8624 145.024 45.7626 147.379 47.1132C149.734 48.4637 152.435 49.1547 155.466 49.1547H155.45Z" fill="white"/>
	<path d="M244.48 32.9007C244.48 35.8845 244.135 38.5857 243.46 41.0356C242.784 43.4697 241.638 45.5741 240.052 47.3487C238.451 49.1233 236.347 50.5053 233.724 51.4633C231.102 52.4212 227.836 52.9081 223.911 52.9081C219.404 52.9081 215.777 52.3427 212.998 51.2277C210.219 50.097 208.099 48.6208 206.591 46.7834C205.084 44.946 204.11 42.8416 203.608 40.4545C203.106 38.0674 202.87 35.649 202.87 33.1991V6.51732C202.87 5.46513 202.509 4.71132 201.771 4.24018C201.033 3.76905 199.651 3.40785 197.61 3.14088C197.092 3.09376 196.825 2.63834 196.825 1.806C196.825 1.49192 196.872 1.0679 196.982 0.549652C198.552 0.659583 200.154 0.738105 201.818 0.816627C203.467 0.895149 205.053 0.942262 206.56 0.942262C207.926 0.942262 209.512 0.895149 211.349 0.816627C213.186 0.738105 214.882 0.643878 216.452 0.549652C216.562 1.0679 216.609 1.49192 216.609 1.806C216.609 2.63834 216.342 3.09376 215.824 3.14088C213.83 3.40785 212.417 3.76905 211.537 4.24018C210.674 4.71132 210.25 5.46513 210.25 6.51732V31.4873C210.25 36.9367 211.333 41.0984 213.5 44.0037C215.667 46.909 219.357 48.3695 224.539 48.3695C227.475 48.3695 229.956 48.0397 231.997 47.3958C234.038 46.752 235.719 45.7312 237.022 44.3806C238.325 43.0143 239.267 41.2554 239.848 39.0725C240.429 36.9053 240.712 34.2984 240.712 31.2517V6.51732C240.712 5.46513 240.319 4.71132 239.534 4.24018C238.749 3.76905 237.336 3.40785 235.295 3.14088C234.714 3.09376 234.431 2.63834 234.431 1.806C234.431 1.49192 234.478 1.0679 234.588 0.549652C236.111 0.659583 237.587 0.738105 239.016 0.816627C240.445 0.895149 241.701 0.942262 242.753 0.942262C244.009 0.942262 245.281 0.895149 246.569 0.816627C247.856 0.738105 249.112 0.643878 250.369 0.549652C250.478 1.0679 250.526 1.49192 250.526 1.806C250.526 2.07298 250.447 2.33995 250.29 2.63834C250.133 2.92101 249.929 3.09376 249.662 3.15658C247.731 3.36074 246.38 3.72194 245.611 4.20877C244.857 4.71132 244.48 5.48083 244.48 6.51732V32.9007Z" fill="white"/>
	<path d="M282.008 46.485C282.008 47.5372 282.369 48.2439 283.107 48.6522C283.845 49.0605 285.196 49.4531 287.19 49.8771C287.708 49.9871 287.975 50.3954 287.975 51.1335C287.975 51.4476 287.928 51.8716 287.818 52.3898C286.201 52.2799 284.567 52.2014 282.95 52.1229C281.333 52.0443 279.778 51.9972 278.318 51.9972C276.858 51.9972 275.35 52.0443 273.639 52.1229C271.927 52.2014 270.326 52.2956 268.818 52.3898C268.708 51.8716 268.661 51.4476 268.661 51.1335C268.661 50.3954 268.928 49.9871 269.446 49.8771C271.441 49.5159 272.791 49.1233 273.529 48.6993C274.267 48.2753 274.628 47.5529 274.628 46.5007V6.51732C274.628 5.46512 274.267 4.72702 273.529 4.28729C272.791 3.84757 271.441 3.45496 269.446 3.15658C269.132 3.10946 268.928 2.95242 268.818 2.68545C268.708 2.41847 268.661 2.13579 268.661 1.8217C268.661 1.50762 268.708 1.0836 268.818 0.565353C270.389 0.675284 272.022 0.753806 273.717 0.832328C275.413 0.91085 276.952 0.957963 278.302 0.957963C279.653 0.957963 281.113 0.91085 282.825 0.832328C284.52 0.753806 286.185 0.65958 287.802 0.565353C287.912 1.0836 287.959 1.50762 287.959 1.8217C287.959 2.60692 287.692 3.04665 287.174 3.15658C285.18 3.47067 283.829 3.84757 283.092 4.28729C282.354 4.72702 281.992 5.48083 281.992 6.51732V46.485H282.008Z" fill="white"/>
	<path d="M326.602 29.0531H320.792V46.3279C320.792 47.4744 321.326 48.2596 322.409 48.6836C323.477 49.1076 325.11 49.4374 327.308 49.7044C327.936 49.8143 328.251 50.254 328.251 51.0393C328.251 51.4005 328.203 51.8559 328.094 52.3741C326.68 52.2642 324.969 52.1857 322.943 52.1072C320.918 52.0286 318.955 51.9815 317.024 51.9815C315.658 51.9815 314.087 52.0286 312.313 52.1072C310.539 52.1857 308.859 52.2799 307.288 52.3741C307.178 51.8559 307.131 51.4319 307.131 51.1178C307.131 50.3797 307.414 49.9714 307.995 49.8614C309.989 49.5473 311.387 49.1704 312.187 48.715C313.004 48.2753 313.396 47.5215 313.396 46.485V6.51732C313.396 5.52794 313.02 4.77413 312.266 4.28729C311.512 3.78475 310.036 3.40785 307.822 3.15658C307.304 3.10946 307.037 2.65404 307.037 1.8217C307.037 1.50762 307.084 1.0836 307.194 0.565353C308.764 0.675284 310.382 0.753806 312.062 0.832328C313.742 0.91085 315.328 0.957963 316.851 0.957963H327.45C333.102 0.957963 337.373 2.19861 340.247 4.69561C343.12 7.1769 344.565 10.5376 344.565 14.7778C344.565 15.9242 344.376 17.1335 343.968 18.3898C343.576 19.6462 342.979 20.8711 342.163 22.0804C341.346 23.2896 340.31 24.3889 339.022 25.4097C337.735 26.4305 336.243 27.2471 334.5 27.891L347.611 46.1081C348.6 47.4744 349.699 48.4166 350.909 48.9349C352.118 49.4531 353.232 49.8457 354.284 50.1127C354.756 50.2226 354.991 50.5838 354.991 51.212C354.991 51.636 354.944 52.1072 354.834 52.6254C353.625 52.5155 352.165 52.437 350.437 52.3427C348.71 52.2642 347.109 52.2328 345.648 52.2328C344.549 52.2328 343.434 51.7617 342.32 50.8194C341.189 49.8771 340.137 48.6679 339.132 47.2074L326.57 29.0688L326.602 29.0531ZM324.953 25.8337C328.612 25.8337 331.438 25.0642 333.432 23.5252C335.426 21.9861 336.416 19.2693 336.416 15.406C336.416 13.7885 336.211 12.2965 335.788 10.9303C335.364 9.56397 334.704 8.38614 333.793 7.39676C332.883 6.40739 331.674 5.62217 330.182 5.0411C328.69 4.46004 326.869 4.17736 324.718 4.17736H320.792V25.8494H324.953V25.8337Z" fill="white"/>
	<path d="M383.522 4.16166V24.2633H395.769C396.821 24.2633 397.559 23.7607 398.015 22.74C398.454 21.7192 398.815 20.4785 399.067 19.0023C399.224 18.327 399.695 17.9815 400.48 17.9815C400.637 17.9815 400.841 18.0129 401.108 18.06C401.375 18.1072 401.579 18.17 401.736 18.2171C401.626 19.3635 401.547 20.6827 401.453 22.1432C401.375 23.6037 401.343 24.8915 401.343 25.9908C401.343 26.8859 401.375 27.9695 401.422 29.2573C401.469 30.545 401.579 31.9898 401.736 33.6074C401.312 33.7173 400.919 33.7644 400.558 33.7644C399.726 33.7644 399.224 33.4189 399.067 32.7437C398.8 31.2831 398.454 30.0425 398.015 29.006C397.575 27.9852 396.821 27.4827 395.769 27.4827H383.522V46.0139C383.522 47.1132 384.228 47.8513 385.641 48.2125C387.055 48.5737 389.378 48.7621 392.629 48.7621H396.947C398.47 48.7621 399.789 48.5423 400.919 48.1025C402.05 47.6628 403.039 47.0503 403.903 46.2965C404.766 45.5427 405.536 44.6319 406.211 43.5954C406.886 42.5432 407.546 41.3968 408.174 40.1404C408.331 39.7792 408.723 39.5908 409.351 39.5908C409.618 39.5908 409.885 39.6693 410.184 39.8263C410.466 39.9834 410.749 40.1404 411 40.2975C410.529 41.2868 410.121 42.4804 409.791 43.8781C409.446 45.26 409.116 46.5792 408.817 47.8356C408.503 49.0919 408.174 50.1598 407.844 51.055C407.499 51.9501 407.075 52.3898 406.541 52.3898C406.117 52.3898 405.52 52.3584 404.735 52.3113C403.95 52.2642 403.102 52.2171 402.191 52.1857C401.281 52.1543 400.354 52.1229 399.412 52.0601C398.47 52.0129 397.653 51.9815 396.978 51.9815H379.784C378.261 51.9815 376.644 52.0286 374.917 52.1072C373.19 52.1857 371.541 52.2799 369.971 52.3741C369.861 51.8559 369.814 51.4319 369.814 51.1178C369.814 50.3797 370.081 49.9714 370.599 49.8614C372.593 49.5002 374.006 49.1076 374.885 48.6836C375.749 48.2596 376.173 47.5372 376.173 46.485V6.51732C376.173 5.46513 375.796 4.75843 375.042 4.35011C374.289 3.9575 372.813 3.54919 370.599 3.14088C370.081 3.03095 369.814 2.59122 369.814 1.806C369.814 1.53903 369.814 1.31917 369.861 1.14642C369.892 0.957966 369.924 0.769514 369.986 0.549652C372.232 0.706696 374.116 0.816627 375.639 0.86374C377.162 0.910853 378.513 0.942262 379.722 0.942262H395.188C397.543 0.942262 399.585 0.86374 401.312 0.706696C403.039 0.549652 404.185 0.47113 404.766 0.47113C405.442 0.47113 405.913 0.895149 406.148 1.77459C406.384 2.63834 406.588 3.67483 406.745 4.86836C406.902 6.0776 407.09 7.34965 407.294 8.71593C407.499 10.0822 407.891 11.2286 408.472 12.1709C408.048 12.485 407.577 12.642 407.059 12.642C406.384 12.642 405.928 12.4065 405.724 11.9353C405.096 10.5691 404.499 9.40693 403.918 8.44896C403.337 7.47529 402.678 6.69007 401.909 6.04619C401.139 5.40231 400.229 4.94688 399.161 4.63279C398.093 4.31871 396.774 4.16166 395.204 4.16166H383.584H383.522Z" fill="white"/>
	</g>
	<defs>
	<clipPath id="clip0_308_58">
	<rect width="411" height="68" fill="white"/>
	</clipPath>
	</defs>
	</svg>
	