<?xml version="1.0" encoding="UTF-8"?>
<svg xmlns="http://www.w3.org/2000/svg" width="187" height="67" viewBox="0 0 187 67" fill="none">
  <rect width="187" height="67" />
  <path d="M55.8357 34.5C55.8357 29.3691 52.6994 24.9754 48.2479 23.1182L47.0627 25.9654C50.4014 27.3602 52.75 30.6555 52.75 34.5C52.75 38.3518 50.4014 41.6398 47.0555 43.0346L48.2406 45.8818C52.6994 44.0246 55.8357 39.6309 55.8357 34.5ZM49.6643 34.5C49.6643 31.9346 48.0961 29.7377 45.8703 28.8127L44.6852 31.66C45.798 32.1225 46.5785 33.2209 46.5785 34.5072C46.5785 35.7863 45.798 36.8848 44.6852 37.3545L45.8703 40.2018C48.0961 39.2623 49.6643 37.0654 49.6643 34.5ZM50.6182 17.4236L49.4258 20.2709C54.9975 22.5906 58.9143 28.0828 58.9143 34.5C58.9143 40.91 54.9975 46.4094 49.4258 48.7291L50.6109 51.5764C57.3027 48.7869 62 42.1963 62 34.5C62 26.8037 57.3027 20.2131 50.6182 17.4236ZM25 26.7893V42.2035H31.1643L41.9607 53V16L31.1643 26.7893H25Z" fill="white"/>
</svg>